<svg width="201" height="50" viewBox="0 0 201 50" fill="none" xmlns="http://www.w3.org/2000/svg">
<path d="M15.0844 2.63544C10.8658 2.63544 7.43341 6.06781 7.43341 10.2865V35.5938H28.0324C30.9527 35.5938 33.3292 37.9703 33.3292 40.8906V43.8333C33.3292 45.7755 34.9045 47.3529 36.8444 47.3623H36.8789C38.8105 47.3529 40.3765 45.7867 40.3894 43.8563C40.3906 43.2325 40.3917 6.16668 40.3917 6.16668C40.3917 4.83658 40.8535 3.62183 41.601 2.63544H15.0844ZM46.2771 2.63544C44.3302 2.63544 42.7459 4.21979 42.7459 6.16668V13.2292H46.8657C48.4889 13.2292 49.8084 11.9097 49.8084 10.2865V6.16668C49.8084 4.21979 48.224 2.63544 46.2771 2.63544ZM3.31362 37.9479C1.69042 37.9479 0.370911 39.2674 0.370911 40.8906V42.0677C0.370911 44.988 2.74744 47.3646 5.66778 47.3646H32.1843C31.4369 46.3782 30.9751 45.1634 30.9751 43.8333V40.8906C30.9751 39.2674 29.6556 37.9479 28.0324 37.9479H3.31362Z" fill="#5B44EC"/>
<path d="M63.1812 13.0076C65.1435 13.0076 66.8793 13.3246 68.3888 13.9585C69.8982 14.5623 71.1661 15.4378 72.1926 16.585C73.219 17.702 74.0039 19.0303 74.5473 20.5699C75.0907 22.0793 75.3624 23.7397 75.3624 25.5511C75.3624 27.8152 74.8945 29.8228 73.9586 31.5737C73.0529 33.3247 71.7699 34.6983 70.1095 35.6945C68.4491 36.6907 66.4869 37.1888 64.2227 37.1888C63.2567 37.1888 62.3208 37.053 61.4151 36.7813C60.5397 36.5096 59.7397 36.1171 59.0151 35.6039C58.3208 35.0907 57.7321 34.4869 57.2491 33.7926H57.2038V46.6078H51V25.5511C51 22.985 51.4981 20.7661 52.4943 18.8944C53.4906 17.0227 54.8944 15.5736 56.7057 14.5472C58.5472 13.5208 60.7057 13.0076 63.1812 13.0076ZM63.1812 18.3057C61.9736 18.3057 60.917 18.6076 60.0114 19.2114C59.1359 19.8152 58.4566 20.6303 57.9736 21.6567C57.5208 22.6831 57.2944 23.8303 57.2944 25.0982C57.2944 26.3661 57.5208 27.5133 57.9736 28.5397C58.4566 29.5662 59.1359 30.3813 60.0114 30.985C60.917 31.5888 61.9736 31.8907 63.1812 31.8907C64.4189 31.8907 65.4755 31.5888 66.351 30.985C67.2265 30.3813 67.8906 29.5662 68.3435 28.5397C68.8265 27.5133 69.068 26.3661 69.068 25.0982C69.068 23.8303 68.8265 22.6831 68.3435 21.6567C67.8906 20.6303 67.2265 19.8152 66.351 19.2114C65.4755 18.6076 64.4189 18.3057 63.1812 18.3057Z" fill="#242427"/>
<path d="M88.9841 37.1888C86.8709 37.1888 85.0294 36.6454 83.4596 35.5586C81.8898 34.4718 80.6671 33.0228 79.7916 31.2115C78.9464 29.3699 78.5237 27.3473 78.5237 25.1435C78.5237 22.8793 79.0067 20.8265 79.9728 18.985C80.969 17.1435 82.3879 15.6944 84.2294 14.6378C86.0709 13.551 88.2747 13.0076 90.8408 13.0076C93.437 13.0076 95.6257 13.551 97.4068 14.6378C99.188 15.7246 100.546 17.1887 101.482 19.0303C102.418 20.8718 102.886 22.9095 102.886 25.1435V36.6454H96.6823V32.7964H96.5917C96.1389 33.6115 95.5653 34.3511 94.871 35.0152C94.2068 35.6794 93.3917 36.2077 92.4257 36.6002C91.4596 36.9926 90.3125 37.1888 88.9841 37.1888ZM90.7502 31.8907C91.9577 31.8907 92.9993 31.5888 93.8747 30.985C94.7502 30.3813 95.4144 29.5662 95.8672 28.5397C96.3502 27.4831 96.5917 26.3209 96.5917 25.0529C96.5917 23.785 96.3502 22.6529 95.8672 21.6567C95.4144 20.6303 94.7502 19.8152 93.8747 19.2114C92.9993 18.6076 91.9577 18.3057 90.7502 18.3057C89.5124 18.3057 88.4407 18.6076 87.5351 19.2114C86.6596 19.8152 85.9804 20.6303 85.4973 21.6567C85.0445 22.6529 84.8181 23.785 84.8181 25.0529C84.8181 26.3209 85.0445 27.4831 85.4973 28.5397C85.9804 29.5662 86.6596 30.3813 87.5351 30.985C88.4407 31.5888 89.5124 31.8907 90.7502 31.8907Z" fill="#242427"/>
<path d="M120.714 13.0076C122.676 13.0076 124.412 13.3246 125.921 13.9585C127.431 14.5623 128.699 15.4378 129.725 16.585C130.752 17.702 131.537 19.0303 132.08 20.5699C132.623 22.0793 132.895 23.7397 132.895 25.5511C132.895 27.8152 132.427 29.8228 131.491 31.5737C130.586 33.3247 129.303 34.6983 127.642 35.6945C125.982 36.6907 124.02 37.1888 121.755 37.1888C120.789 37.1888 119.854 37.053 118.948 36.7813C118.072 36.5096 117.272 36.1171 116.548 35.6039C115.853 35.0907 115.265 34.4869 114.782 33.7926H114.737V46.6078H108.533V25.5511C108.533 22.985 109.031 20.7661 110.027 18.8944C111.023 17.0227 112.427 15.5736 114.238 14.5472C116.08 13.5208 118.238 13.0076 120.714 13.0076ZM120.714 18.3057C119.506 18.3057 118.45 18.6076 117.544 19.2114C116.669 19.8152 115.989 20.6303 115.506 21.6567C115.053 22.6831 114.827 23.8303 114.827 25.0982C114.827 26.3661 115.053 27.5133 115.506 28.5397C115.989 29.5662 116.669 30.3813 117.544 30.985C118.45 31.5888 119.506 31.8907 120.714 31.8907C121.952 31.8907 123.008 31.5888 123.884 30.985C124.759 30.3813 125.423 29.5662 125.876 28.5397C126.359 27.5133 126.601 26.3661 126.601 25.0982C126.601 23.8303 126.359 22.6831 125.876 21.6567C125.423 20.6303 124.759 19.8152 123.884 19.2114C123.008 18.6076 121.952 18.3057 120.714 18.3057Z" fill="#242427"/>
<path d="M137.415 36.6454V13.551H143.664V36.6454H137.415ZM140.539 10.7887C139.483 10.7887 138.562 10.4114 137.777 9.65664C137.022 8.87173 136.645 7.95097 136.645 6.89436C136.645 5.83775 137.022 4.93208 137.777 4.17737C138.562 3.39246 139.483 3 140.539 3C141.596 3 142.502 3.39246 143.256 4.17737C144.041 4.93208 144.434 5.83775 144.434 6.89436C144.434 7.95097 144.041 8.87173 143.256 9.65664C142.502 10.4114 141.596 10.7887 140.539 10.7887Z" fill="#242427"/>
<path d="M149.261 36.6454V20.1171C149.261 18.0642 149.835 16.4642 150.982 15.317C152.159 14.1397 153.774 13.551 155.827 13.551H162.212V18.8491H156.914C156.521 18.8491 156.174 18.985 155.872 19.2567C155.601 19.5284 155.465 19.8756 155.465 20.2982V36.6454H149.261Z" fill="#242427"/>
<path d="M176.723 37.1888C174.338 37.1888 172.21 36.6605 170.338 35.6039C168.466 34.5171 166.987 33.0681 165.9 31.2567C164.813 29.4152 164.27 27.3624 164.27 25.0982C164.27 22.8341 164.813 20.7963 165.9 18.985C166.987 17.1435 168.466 15.6944 170.338 14.6378C172.21 13.551 174.338 13.0076 176.723 13.0076C179.108 13.0076 181.236 13.551 183.108 14.6378C184.98 15.6944 186.459 17.1435 187.546 18.985C188.632 20.7963 189.176 22.8341 189.176 25.0982C189.176 27.3624 188.632 29.4152 187.546 31.2567C186.459 33.0681 184.98 34.5171 183.108 35.6039C181.236 36.6605 179.108 37.1888 176.723 37.1888ZM176.723 31.8907C177.991 31.8907 179.078 31.5888 179.983 30.985C180.919 30.3813 181.629 29.5662 182.112 28.5397C182.625 27.5133 182.881 26.3661 182.881 25.0982C182.881 23.8303 182.625 22.6831 182.112 21.6567C181.629 20.6303 180.919 19.8152 179.983 19.2114C179.078 18.6076 177.991 18.3057 176.723 18.3057C175.455 18.3057 174.353 18.6076 173.417 19.2114C172.512 19.8152 171.802 20.6303 171.289 21.6567C170.806 22.6831 170.564 23.8303 170.564 25.0982C170.564 26.3661 170.806 27.5133 171.289 28.5397C171.802 29.5662 172.512 30.3813 173.417 30.985C174.353 31.5888 175.455 31.8907 176.723 31.8907Z" fill="#242427"/>
<path d="M196.789 37.1888C195.641 37.1888 194.645 36.7813 193.8 35.9662C192.985 35.1209 192.577 34.1247 192.577 32.9775C192.577 31.8303 192.985 30.8492 193.8 30.0341C194.645 29.1888 195.641 28.7662 196.789 28.7662C197.936 28.7662 198.917 29.1888 199.732 30.0341C200.577 30.8492 201 31.8303 201 32.9775C201 33.7322 200.804 34.4417 200.411 35.1058C200.049 35.7398 199.551 36.253 198.917 36.6454C198.283 37.0077 197.574 37.1888 196.789 37.1888Z" fill="#242427"/>
</svg>
